<svg width="24" height="24" viewBox="0 0 24 24" fill="none" xmlns="http://www.w3.org/2000/svg">
<path d="M10.9 2.09998C6.3 2.59998 2.6 6.29998 2.1 10.8C1.5 15.8 4.6 20.1 9 21.5V19.2C9 19.2 8.6 19.3 8.1 19.3C6.7 19.3 6.1 18.1 6 17.4C5.9 17 5.7 16.7 5.4 16.4C5.1 16.3 5 16.3 5 16.2C5 16 5.3 16 5.4 16C6 16 6.5 16.7 6.7 17C7.2 17.8 7.8 18 8.1 18C8.5 18 8.8 17.9 9 17.8C9.1 17.1 9.4 16.4 10 16C7.7 15.5 6 14.2 6 12C6 10.9 6.5 9.79998 7.2 8.99998C7.1 8.79998 7 8.29998 7 7.59998C7 7.19998 7 6.59998 7.3 5.99998C7.3 5.99998 8.7 5.99998 10.1 7.29998C10.6 7.09998 11.3 6.99998 12 6.99998C12.7 6.99998 13.4 7.09998 14 7.29998C15.3 5.99998 16.8 5.99998 16.8 5.99998C17 6.59998 17 7.19998 17 7.59998C17 8.39998 16.9 8.79998 16.8 8.99998C17.5 9.79998 18 10.8 18 12C18 14.2 16.3 15.5 14 16C14.6 16.5 15 17.4 15 18.3V21.6C19.1 20.3 22 16.5 22 12.1C22 6.09998 16.9 1.39998 10.9 2.09998Z" fill="white"/>
</svg>
